Inverse Dynamics Generalized Forces
version=1
nRows=15
nColumns=34
inDegrees=no
endheader 
time	pelvis_tilt_moment	pelvis_list_moment	pelvis_rotation_moment	pelvis_tx_force	pelvis_ty_force	pelvis_tz_force	hip_flexion_l_moment	hip_adduction_l_moment	hip_rotation_l_moment	hip_flexion_r_moment	hip_adduction_r_moment	hip_rotation_r_moment	knee_angle_l_moment	knee_angle_r_moment	ankle_angle_l_moment	ankle_angle_r_moment	subtalar_angle_l_moment	subtalar_angle_r_moment	mtp_angle_l_moment	mtp_angle_r_moment	lumbar_extension_moment	lumbar_bending_moment	lumbar_rotation_moment	arm_flex_l_moment	arm_add_l_moment	arm_rot_l_moment	arm_flex_r_moment	arm_add_r_moment	arm_rot_r_moment	elbow_flex_l_moment	elbow_flex_r_moment	pro_sup_l_moment	pro_sup_r_moment	
          7.81000000	          0.00000078	          0.00000006	          0.00000008	         -0.00000018	          0.00000041	         -0.00000134	        -98.59733732	        130.94247295	        -44.05434817	        -18.90133228	         42.50834617	         -9.11881613	         80.37687992	          3.79670084	         -3.69474822	         -0.91595458	          4.35783480	          0.06765003	         -0.09446177	          0.16107252	         86.91917839	        105.66667827	         20.99482543	       -116.88752954	       -104.69715026	         82.06134619	         42.61390245	       -133.30699838	        -95.20950545	        -47.12218010	        -48.80290346	          3.44342944	        -10.28793950	
          7.82000000	         -0.00000002	          0.00000004	          0.00000001	         -0.00000042	          0.00000055	          0.00000031	        -80.08942351	        103.38787750	        -40.35269666	        -10.78527552	         38.01204773	         -6.76779015	         77.94249255	        -15.33440957	         -2.25506191	         -0.75541673	          3.10362459	          0.34133772	         -0.13222329	          0.12027004	         76.89695573	         63.02086898	         -2.43960924	       -125.56503330	       -115.40924449	         98.20756763	         70.31341059	       -136.70856276	        -29.83207266	        -71.73144556	        -74.14977322	          5.69160840	         -0.99385259	
          7.83000000	          0.00000023	          0.00000052	          0.00000000	         -0.00000022	          0.00000038	         -0.00000034	        -43.83801179	         72.21310104	        -34.21091049	         -6.42586961	         33.73163714	         -4.95655032	         63.68817844	        -15.40958637	         -0.35754267	         -0.40541177	          1.94514246	          0.39480846	         -0.17499282	          0.07082364	         32.45686192	         10.06465865	        -32.11154798	       -132.28303973	       -123.18012838	         57.05810280	         90.75622801	       -140.09665318	         16.39533346	        -57.64703929	        -93.84819653	          4.11581661	          6.78691681	
          7.84000000	          0.00000028	          0.00000058	         -0.00000003	          0.00000022	          0.00000036	         -0.00000130	          1.95333700	         50.67994986	        -28.57255750	          5.12268604	         25.68964940	         -4.68212376	         42.75824177	         -7.15791094	          2.33489865	          0.48408660	          0.78042780	          0.32204650	         -0.27353913	         -0.03051876	        -50.16388092	         -7.77257950	        -30.47888259	       -137.28722037	        -69.45392381	          2.80013902	        105.09930980	        -93.78487343	         43.48595154	         -5.23156525	        -81.77173273	         -1.07765357	          7.46735466	
          7.85000000	         -0.00000011	         -0.00000018	         -0.00000013	          0.00000036	          0.00000026	          0.00000038	         50.95442083	         29.35186549	        -21.90938725	          6.10372961	         20.39985551	         -3.54231226	         20.67719047	         -5.08685877	          4.21791724	          0.30157273	         -0.21192340	          0.53526657	         -0.28848976	         -0.05238065	       -101.00327387	        -24.37931728	        -24.89156706	       -140.34357200	        -14.97324432	        -37.78139345	        115.27444451	        -33.04671186	         -6.81778832	         33.40392488	        -22.92149705	         -6.62930540	          1.55330251	
          7.86000000	         -0.00000004	          0.00000031	         -0.00000003	          0.00000055	          0.00000051	          0.00000144	         58.33548211	         43.03926007	        -24.82542934	          8.49970204	         17.63930249	         -2.75763632	         -2.54155641	         -3.10542545	          4.07207099	          0.46609326	          0.26002149	          0.39556770	         -0.25940550	         -0.07722961	        -83.13495984	         23.55126725	          8.13653576	       -141.41465932	         26.08853442	        -65.55110988	        123.36181256	         12.64807589	        -43.04417584	         61.78176798	         20.99109729	        -11.06412075	         -2.77906546	
          7.87000000	         -0.00000061	         -0.00000034	         -0.00000000	         -0.00000024	         -0.00000027	          0.00000032	         71.55458724	         38.37724919	        -21.36391783	          4.44595915	          8.82917036	         -1.81474486	         -9.68448011	         -0.70769680	          4.06298225	         -0.13881498	          0.11712992	          0.45601269	         -0.22161554	         -0.01040637	        -95.37797463	         14.32380620	          6.29547425	       -141.72311922	         57.68532360	        -82.90717331	         91.93396180	         46.79401190	        -69.25292609	         63.35398298	         53.45617266	        -14.76795552	         -7.33616368	
          7.88000000	          0.00000024	          0.00000015	          0.00000007	         -0.00000008	          0.00000050	         -0.00000001	         68.98343493	         22.53458323	        -20.66000936	         27.87811495	         17.36308397	         -3.32565053	         -9.57187782	          0.89368834	          4.65870703	          0.89417520	          0.23174136	          0.11265896	         -0.29839774	         -0.06574452	       -129.88700641	          3.49855278	        -69.82513401	       -140.88019394	         81.32673452	        -92.59867888	        106.78017685	         72.35203325	        -36.04297724	         86.02194146	         70.76322523	        -18.92216525	         -4.78539645	
          7.89000000	         -0.00000028	         -0.00000003	         -0.00000005	          0.00000047	          0.00000042	          0.00000008	         74.94050345	         12.44521426	        -15.12441301	         23.67894747	         10.73140457	         -2.55100350	         -5.20548014	          8.88261313	          3.63530794	          1.35299932	          0.65398075	         -0.18187505	         -0.24284967	         -0.06787279	       -172.16071397	        -71.67447779	       -127.02857367	       -137.83348318	         97.72766744	        -18.33542979	        117.88742363	         91.70950863	         12.59332722	        102.35231024	         25.24791126	          4.16151338	          0.13545565	
          7.90000000	          0.00000068	         -0.00000069	         -0.00000012	         -0.00000130	          0.00000080	         -0.00000272	         23.02820329	         21.28645368	        -23.47487293	         31.10226838	         23.15023301	         -4.52962688	        -10.40682962	         -4.07093579	         -2.24828882	          3.98341254	          2.71671319	         -2.51212475	          0.08868629	         -0.06795756	        -54.81856776	       -128.41813632	       -170.00653512	       -137.32691764	        107.62943193	         36.47439530	         50.86086511	        106.08235942	         47.10704278	        107.97109620	        -18.13115273	         11.61420853	          4.57359458	
          7.91000000	          0.00000011	          0.00000045	         -0.00000022	          0.00000033	          0.00000108	         -0.00000037	         57.12072562	          6.01263161	        -21.06504222	         21.05072977	         17.32632670	         -3.20838543	        -12.89449182	          0.17723686	          2.56267867	          1.36698972	          0.69409655	         -0.41120519	         -0.13302887	         -0.08057416	       -115.75150347	        -21.94668769	        -99.16252677	       -148.06711374	        120.90938731	         45.99938421	          0.64581524	        116.53067923	         70.86954410	         48.14785594	         18.46869221	          7.29174331	          7.39178707	
          7.92000000	         -0.00000088	         -0.00000148	         -0.00000029	          0.00000043	         -0.00000065	         -0.00000045	         82.67973652	          9.09203045	        -17.01097092	         24.80189081	         17.12204244	         -3.24717448	        -23.72891492	          2.32979970	          3.70571669	          1.55565711	          0.12657369	         -0.49076954	         -0.18361813	         -0.09239372	       -161.53808396	        -31.90082796	       -101.81860936	       -147.99419167	        127.46997470	         70.03775174	        -36.94995946	         50.51597434	         88.95471112	          8.11813723	         -7.99626795	         10.61065732	         11.94396201	
          7.93000000	         -0.00000052	         -0.00000106	          0.00000008	          0.00000037	          0.00000041	         -0.00000047	         83.07525771	         -7.30638272	        -15.19922999	         20.41543443	         13.43678821	         -2.29816302	        -28.99608951	          2.51646021	          3.63061073	          1.77117575	         -0.17896189	         -0.84009894	         -0.15972471	         -0.08874276	       -157.00905253	        -53.34940621	       -112.82760290	       -147.54686907	        131.91339824	         15.92019936	        -65.17512875	          1.40175690	         27.69929088	         40.48788648	        -15.06481753	          5.76191373	          5.08196915	
          7.94000000	         -0.00000045	         -0.00000086	          0.00000016	          0.00000076	          0.00000012	          0.00000103	         84.56818614	          0.39972974	        -11.75668093	         12.80471331	         11.09329194	         -1.86816927	        -28.83200273	          2.85407186	          4.08459325	          1.55747534	         -0.84592474	         -0.82153217	         -0.17582024	         -0.08978379	       -144.34609652	        -29.22153788	        -77.08120861	        -89.00110281	         61.14534607	        -29.19347831	        -86.60992225	        -36.04855909	        -20.26821058	         -6.89813018	        -49.27258072	         -1.73648872	         -4.00134416	
          7.95000000	         -0.00000029	         -0.00000003	          0.00000016	          0.00000036	          0.00000168	          0.00000146	         71.78200236	          0.84250997	        -10.63174249	          9.94411910	          8.86351663	         -1.09554585	        -28.04920202	          2.14218188	          4.57786712	          0.60863000	         -1.33377191	         -0.52302097	         -0.21743083	         -0.02602789	       -134.94124754	          2.64774169	        -64.89744427	        -85.78759402	          8.75480825	        -61.82132586	       -102.78570590	        -64.63641176	        -53.13291144	        -43.56686969	        -75.52106780	         -8.64205905	         -9.46668373	
